<?xml version="1.0" encoding="UTF-8"?>
<svg id="Layer_1" xmlns="http://www.w3.org/2000/svg" viewBox="0 0 600 470">
  <defs>
    <style>
      .cls-1 {
        fill: #000;
      }
    </style>
  </defs>
  <path id="big-heart" class="cls-1" d="M466,0c-98,0-166,81.69-166,81.69,0,0-68-81.69-166-81.69S0,92.3,0,146.41c0,168.69,300,323.59,300,323.59,0,0,300-154.9,300-323.59,0-54.11-36-146.41-134-146.41ZM300,434.14S55.91,305.76,55.91,165.95c0-44.84,29.29-121.34,109.03-121.34s135.06,67.71,135.06,67.71c0,0,55.33-67.71,135.06-67.71s109.03,76.5,109.03,121.34c0,139.81-244.09,268.18-244.09,268.18Z"/>
  <path id="small-heart" class="cls-1" d="M421.02,68.87c-71.44,0-121.02,60.66-121.02,60.66,0,0-49.57-60.66-121.02-60.66s-97.69,68.54-97.69,108.72c0,125.27,218.7,240.29,218.7,240.29,0,0,218.7-115.03,218.7-240.29,0-40.18-26.24-108.72-97.69-108.72ZM337.9,219.6v111.9c-15,18.3-55.8,26.1-70.8,24v-159.31c-14.1-5.4-19.88-11.95-31.28-8.65,5.07,1.16,12.56,6.21,12.68,15.26.19,13.8-11.4,27-26.4,27-13.5,0-26.1-11.1-26.1-25.8.3-24,22.5-33.6,44.4-33.6,52.5,0,136.5,42.6,162.3-12.9l3.3,3.9c-3,75.6-32.1,75.3-68.1,58.2Z"/>
</svg>