<?xml version="1.0" encoding="UTF-8"?>
<svg xmlns="http://www.w3.org/2000/svg" version="1.1" viewBox="0 0 800 800">
  <defs>
    <style>
      .cls-1 {
        fill: #ffcec9;
      }
    </style>
  </defs>
  <!-- Generator: Adobe Illustrator 28.7.1, SVG Export Plug-In . SVG Version: 1.2.0 Build 142)  -->
  <g>
    <g id="Layer_1">
      <path id="bg" class="cls-1" d="M735.4,113.6c-41.9-41.9-97.3-64.8-156.5-64.8s-114.8,23.1-156.7,65l-21.9,21.9-22.2-22.2c-41.9-41.9-97.7-65.1-156.9-65.1s-114.6,23.1-156.4,64.8C22.9,155-.2,210.6,0,269.8c0,59.2,23.2,114.7,65.1,156.6l318.5,318.5c4.4,4.4,10.3,6.8,16.1,6.8s11.7-2.2,16.1-6.6l319.2-318c41.9-41.9,65-97.5,65-156.7.2-59.2-22.7-114.8-64.6-156.7h0Z"/>
      <path id="line" d="M735.4,113.7h0c-41.9-42-97.3-64.9-156.5-64.9s-114.8,23.1-156.7,65l-21.9,21.9-22.2-22.2c-41.9-41.9-97.7-65.1-156.9-65.1s-114.6,23.1-156.4,64.8C22.9,155-.2,210.6,0,269.8c0,59.2,23.2,114.7,65.1,156.6l318.5,318.5c4.4,4.4,10.3,6.8,16.1,6.8s11.7-2.2,16.1-6.6l319.2-318c41.9-41.9,65-97.5,65-156.7.2-59.2-22.7-114.8-64.6-156.7ZM414.3,212.4l33-33c28.9-28.9,67.4-44.9,108.1-44.9s79,15.9,107.9,44.7c28.9,28.9,44.7,67.2,44.7,108.1.2,40.9-15.7,79.2-44.7,108.1h0c0,0-263.5,262.6-263.5,262.6L136.9,394.9c-28.9-28.9-44.9-67.2-44.9-108.1s15.7-79.2,44.7-107.9c28.8-28.8,67.1-44.7,107.8-44.7s79.3,15.9,108.2,44.9l33.3,33.3c7.8,7.8,20.3,7.8,28.2,0Z"/>
    </g>
  </g>
</svg>